<?xml version="1.0" encoding="UTF-8"?>
<svg version="1.1" xmlns="http://www.w3.org/2000/svg" width="512" height="512">
<path d="M0 0 C15.84 0 31.68 0 48 0 C48.33 24.75 48.66 49.5 49 75 C60.88 75 72.76 75 85 75 C85 50.25 85 25.5 85 0 C100.84 0 116.68 0 133 0 C133 25.41 133 50.82 133 77 C139.6 77.66 146.2 78.32 153 79 C157.25537704 79.67576758 161.41810448 80.37326764 165.625 81.25 C166.6778418 81.46833496 167.73068359 81.68666992 168.81542969 81.91162109 C190.99881925 86.68256926 213.39488502 94.85236953 229 112 C229.66902344 112.72574219 230.33804687 113.45148438 231.02734375 114.19921875 C246.3807134 132.37465196 249.20152349 156.08650195 248 179 C246.2365327 198.64945566 237.48415371 215.16936753 222.57421875 228.01953125 C218.60405026 231.07397044 214.39833765 233.61366787 210 236 C211.14984375 236.42925781 212.2996875 236.85851562 213.484375 237.30078125 C214.98984519 237.86649113 216.49504527 238.43292025 218 239 C218.67998047 239.25571777 219.35996094 239.51143555 220.06054688 239.77490234 C240.20599637 247.44401949 258.67374244 259.42582891 268.3125 279.4375 C277.74602114 301.2012485 278.28094414 331.11262022 272 354 C271.70996094 355.07362793 271.70996094 355.07362793 271.4140625 356.16894531 C266.62749665 373.38728634 258.80183153 387.52396358 246 400 C245.01773438 400.99580078 245.01773438 400.99580078 244.015625 402.01171875 C216.85578669 427.83677869 168.44749789 434 133 434 C133 459.74 133 485.48 133 512 C117.16 512 101.32 512 85 512 C85 486.59 85 461.18 85 435 C72.79 435 60.58 435 48 435 C48 460.41 48 485.82 48 512 C32.16 512 16.32 512 0 512 C0 486.26 0 460.52 0 434 C-31.35 434 -62.7 434 -95 434 C-94.36487536 425.74337971 -93.64715136 417.95997402 -92.15234375 409.88671875 C-91.97619034 408.90629105 -91.80003693 407.92586334 -91.61854553 406.91572571 C-91.06425071 403.8385186 -90.50105966 400.76302229 -89.9375 397.6875 C-89.55604582 395.57888356 -89.17518165 393.47016029 -88.79492188 391.36132812 C-87.87007883 386.2396285 -86.93726368 381.1194406 -86 376 C-84.78940918 375.9906543 -83.57881836 375.98130859 -82.33154297 375.97167969 C-77.8248259 375.93170052 -73.31878578 375.8659196 -68.8125 375.79248047 C-66.86499755 375.76431679 -64.91738178 375.7430794 -62.96972656 375.72900391 C-60.16412532 375.70751054 -57.35988 375.66082802 -54.5546875 375.609375 C-53.68883026 375.60814636 -52.82297302 375.60691772 -51.93087769 375.60565186 C-46.49199757 375.47492592 -43.30613911 374.63176413 -39 371 C-35.17513757 365.59243588 -34.8513884 360.95045776 -34.85282898 354.49960327 C-34.84915229 353.62134278 -34.8454756 352.74308229 -34.8416875 351.83820784 C-34.83063933 348.8835064 -34.82680488 345.92884011 -34.82299805 342.97412109 C-34.8167342 340.86022835 -34.81008747 338.74633671 -34.80308533 336.63244629 C-34.78566713 330.88014081 -34.77512107 325.12784365 -34.7668798 319.37551832 C-34.7617308 315.78184458 -34.75565498 312.18817342 -34.74936867 308.5945015 C-34.73031328 297.35140551 -34.71608354 286.10831611 -34.7077567 274.86520708 C-34.69798559 261.88605379 -34.67167067 248.9070711 -34.63125581 235.92797792 C-34.60109361 225.89728506 -34.58628767 215.86664109 -34.58297569 205.83590376 C-34.58062512 199.84459025 -34.57166365 193.85345893 -34.54651451 187.86219406 C-34.52322751 182.22330749 -34.51900327 176.58472298 -34.52927589 170.94580078 C-34.52977122 168.8790448 -34.52345165 166.81227393 -34.50971985 164.74556351 C-34.49198448 161.91744837 -34.49911535 159.09041528 -34.51225281 156.26229858 C-34.50128356 155.45011568 -34.49031432 154.63793278 -34.47901267 153.80113828 C-34.55260372 147.21051193 -36.20245694 141.0923609 -40.7087881 136.11113203 C-48.42613712 128.93837457 -58.43473872 128.91415785 -68.4375 128.68359375 C-69.4574707 128.65561707 -69.4574707 128.65561707 -70.49804688 128.6270752 C-72.99858648 128.55961761 -75.49930525 128.4989379 -78 128.4375 C-86.415 128.2209375 -86.415 128.2209375 -95 128 C-95 111.17 -95 94.34 -95 77 C-63.65 77 -32.3 77 0 77 C0 51.59 0 26.18 0 0 Z M49 132 C49 162.69 49 193.38 49 225 C80.11785149 228.88973144 119.97163812 227.10783529 145.8125 207.875 C152.13246352 202.5495944 156.55897404 195.22585652 158 187 C159.00666867 173.55378279 157.8399216 162.26027113 148.75 151.5625 C130.94120646 133.57939527 102.71223582 131.13191208 78.5625 130.875 C68.70254741 131.03797442 58.85112786 131.55222146 49 132 Z M49 274 C49 307.99 49 341.98 49 377 C111.88531986 379.48734939 111.88531986 379.48734939 168.98046875 354.16796875 C177.98483498 344.74122286 180.50770269 333.72009679 180.27734375 321.1171875 C179.76688712 310.03951673 173.82009157 300.43393823 166 292.875 C142.68836153 273.33207641 107.3526611 272.79390608 78.5546875 272.86962891 C76.10670922 272.87504043 73.65891064 272.8696181 71.2109375 272.86328125 C69.62239544 272.8639414 68.03385348 272.86522125 66.4453125 272.8671875 C65.72949005 272.86516327 65.0136676 272.86313904 64.27615356 272.86105347 C59.05727871 272.88483745 54.25954213 273.41560643 49 274 Z " fill="#FFFFFF" transform="translate(166,0)"/>
</svg>
